<svg xmlns="http://www.w3.org/2000/svg" width="32" height="29" viewBox="0 0 32 29" fill="none">
    <g clip-path="url(#clip0_5_4263)">
        <path d="M15.9458 12.4672C18.0892 12.4672 19.8267 10.7297 19.8267 8.58629C19.8267 6.44298 18.0892 4.70544 15.9458 4.70544C13.8025 4.70544 12.0649 6.44298 12.0649 8.58629C12.0649 10.7297 13.8025 12.4672 15.9458 12.4672Z" fill="#FFD600" fill-opacity="0.78"/>
        <path d="M31.6838 2.39156L17.2045 27.4741C16.6466 28.442 15.245 28.442 14.6824 27.4741L0.203035 2.39156C-0.540718 1.1043 0.903869 -0.34029 2.19114 0.403462L9.44274 4.58944C10.196 5.0233 10.587 5.91009 10.3486 6.74441C10.1388 7.48818 10.0673 8.28916 10.1769 9.1235C10.5202 11.7505 12.6609 13.8434 15.2974 14.1295C18.8064 14.5109 21.7719 11.7696 21.7719 8.34161C21.7719 7.81241 21.7003 7.2975 21.5669 6.81116C21.3333 5.94824 21.6765 5.0376 22.4489 4.59421L29.7052 0.403462C30.9877 -0.34029 32.4275 1.09953 31.6838 2.39156Z" fill="url(#paint0_linear_5_4263)"/>
    </g>
    <defs>
        <linearGradient id="paint0_linear_5_4263" x1="7.62823" y1="2.21517" x2="23.1231" y2="25.0999" gradientUnits="userSpaceOnUse">
            <stop stop-color="#EF1262"/>
            <stop offset="1" stop-color="#4361EE"/>
        </linearGradient>
        <clipPath id="clip0_5_4263">
            <rect width="32" height="28" fill="white" transform="translate(0 0.200012)"/>
        </clipPath>
    </defs>
</svg>